<svg width="148" height="41" viewBox="0 0 148 41" fill="none" xmlns="http://www.w3.org/2000/svg">
<g clip-path="url(#clip0_2718_5880)">
<path fill-rule="evenodd" clip-rule="evenodd" d="M0 40.1248H39.9998V0.125H0V40.1248Z" fill="#CC0000"/>
<path fill-rule="evenodd" clip-rule="evenodd" d="M8.12554 20.1244C8.12554 18.4417 9.48987 17.0777 11.1724 17.0777H13.4842V15.3516H11.1536C8.5217 15.3516 6.38037 17.4926 6.38037 20.1246C6.38037 22.7562 8.5217 24.8976 11.1536 24.8976L15.6412 24.8974C15.8922 24.8974 16.0941 24.6506 16.0941 24.4461V15.6056C16.0941 15.1182 16.3997 14.7074 16.8544 14.5834C17.2424 14.4777 17.7864 14.5849 18.1499 15.2029C18.1669 15.2314 19.2694 17.1319 20.9497 20.0284C22.2684 22.3026 23.6327 24.6543 23.6574 24.6961C23.7984 24.9358 23.9921 25.0491 24.1761 24.9991C24.2919 24.9676 24.4277 24.8554 24.4277 24.6429V15.6056C24.4279 15.1176 24.7324 14.7066 25.1854 14.5831C25.5709 14.4782 26.1122 14.5857 26.4756 15.2029C26.4917 15.2299 27.4664 16.9107 29.0702 19.6754C30.4886 22.1204 31.9551 24.6489 31.9827 24.6959C32.1239 24.9358 32.3179 25.0491 32.5016 24.9991C32.6174 24.9676 32.7532 24.8554 32.7532 24.6431V12.9349H31.0231V19.9056C31.0231 19.9056 28.1327 14.9261 27.9999 14.7006C26.1649 11.5837 22.6976 12.8719 22.6976 15.5551V19.9056C22.6976 19.9056 19.8072 14.9261 19.6744 14.7006C17.8394 11.5837 14.3722 12.8719 14.3721 15.5551V22.6856C14.3729 22.9449 14.1779 23.1709 13.8941 23.1713H11.1724C9.48987 23.1713 8.12554 21.8071 8.12554 20.1244Z" fill="white"/>
<path fill-rule="evenodd" clip-rule="evenodd" d="M33.4436 12.9355V24.6436C33.4436 25.131 33.1379 25.542 32.6833 25.666C32.5996 25.6886 32.5088 25.7016 32.4139 25.7016C32.0689 25.7016 31.6731 25.5311 31.3876 25.0465C31.3723 25.0205 30.2236 23.0401 28.4734 20.0223C27.2104 17.8455 25.9046 15.5946 25.8804 15.5535C25.7394 15.3141 25.5478 15.2005 25.3668 15.2498C25.2523 15.2811 25.1181 15.3933 25.1181 15.6063V24.6436C25.1181 25.1311 24.8124 25.542 24.3576 25.666C23.9696 25.7715 23.4258 25.6645 23.0621 25.0465C23.0474 25.0215 21.9795 23.1808 20.3524 20.3753C18.9894 18.0261 17.5803 15.5966 17.5549 15.5535C17.4136 15.3136 17.2197 15.2001 17.0362 15.2501C16.9202 15.2818 16.7849 15.394 16.7849 15.6061L16.7845 24.4466C16.7845 25.055 16.2504 25.5885 15.6414 25.5885H11.1537C8.14098 25.5885 5.69015 23.1376 5.69015 20.1251C5.69015 17.1125 8.14098 14.6615 11.1537 14.6615H13.4844V12.9355H11.1555C7.18482 12.9355 3.96582 16.1543 3.96582 20.1251C3.96582 24.0956 7.18482 27.3145 11.1555 27.3145H15.6869C17.4092 27.3156 18.5169 26.3063 18.515 24.4446V20.344C18.515 20.344 21.405 25.3233 21.538 25.5488C23.373 28.6656 26.8405 27.3775 26.8405 24.6943V20.344C26.8405 20.344 29.7309 25.3233 29.8633 25.5488C31.6982 28.6656 35.1657 27.3775 35.166 24.6943V12.9355H33.4436Z" fill="white"/>
</g>
<path d="M56.0571 13.125H59.044L61.2127 22.3328L63.5908 13.125H66.3874L68.7274 22.447L70.9723 13.125H73.902L70.2493 26.6704H67.2815L64.9605 17.4245L62.6776 26.6704H59.6527L56.0571 13.125Z" fill="white"/>
<path d="M79.119 16.5684C80.6283 16.5684 81.8395 17.044 82.7527 17.9952C83.6785 18.9465 84.1414 20.2021 84.1414 21.7621C84.1414 23.3348 83.6785 24.5967 82.7527 25.5479C81.8395 26.4991 80.6156 26.9748 79.0809 26.9748C77.5463 26.9748 76.3161 26.4991 75.3902 25.5479C74.4644 24.5967 74.0014 23.3348 74.0014 21.7621C74.0014 20.2021 74.4707 18.9465 75.4092 17.9952C76.3478 17.044 77.5844 16.5684 79.119 16.5684ZM79.0429 18.623C78.32 18.623 77.7492 18.9021 77.3307 19.4601C76.9122 20.0182 76.7029 20.7855 76.7029 21.7621C76.7029 22.764 76.9122 23.544 77.3307 24.1021C77.7492 24.6601 78.3327 24.9391 79.0809 24.9391C79.8292 24.9391 80.4063 24.6601 80.8122 24.1021C81.2307 23.5313 81.44 22.745 81.44 21.743C81.44 20.7665 81.2244 20.0055 80.7931 19.4601C80.3746 18.9021 79.7912 18.623 79.0429 18.623Z" fill="white"/>
<path d="M92.2901 16.6826V19.1748C91.9096 19.0987 91.5609 19.0606 91.2438 19.0606C90.356 19.0606 89.7028 19.346 89.2843 19.9167C88.8657 20.4748 88.6565 21.2294 88.6565 22.1806V26.6704H85.955V16.8538H88.5233V18.6611C89.1701 17.304 90.2291 16.6255 91.7004 16.6255C91.8272 16.6255 92.0238 16.6445 92.2901 16.6826Z" fill="white"/>
<path d="M96.0888 13.125V26.6704H93.3873V13.125H96.0888Z" fill="white"/>
<path d="M107.785 26.6704H105.236V25.4148C104.589 26.4294 103.6 26.9367 102.268 26.9367C100.911 26.9367 99.8266 26.4674 99.0149 25.5289C98.2159 24.5777 97.8164 23.3094 97.8164 21.724C97.8164 20.1767 98.2032 18.9338 98.9769 17.9952C99.7632 17.0567 100.81 16.5874 102.116 16.5874C102.725 16.5874 103.295 16.7143 103.828 16.9679C104.373 17.2216 104.798 17.5894 105.103 18.0713V13.125H107.785V26.6704ZM105.198 21.743C105.198 20.7918 104.989 20.0499 104.57 19.5172C104.164 18.9845 103.593 18.7182 102.858 18.7182C102.122 18.7182 101.552 18.9845 101.146 19.5172C100.74 20.0499 100.537 20.7855 100.537 21.724C100.537 22.6752 100.74 23.4235 101.146 23.9689C101.564 24.5016 102.135 24.7679 102.858 24.7679C103.606 24.7679 104.183 24.5079 104.589 23.9879C104.995 23.4552 105.198 22.707 105.198 21.743Z" fill="white"/>
<defs>
<clipPath id="clip0_2718_5880">
<rect width="40" height="40" fill="white" transform="translate(0 0.125)"/>
</clipPath>
</defs>
</svg>
