<svg width="232" height="30" viewBox="0 0 232 30" fill="none" xmlns="http://www.w3.org/2000/svg">
<path fill-rule="evenodd" clip-rule="evenodd" d="M15 27.5C21.9036 27.5 27.5 21.9036 27.5 15C27.5 8.09644 21.9036 2.5 15 2.5C8.09644 2.5 2.5 8.09644 2.5 15C2.5 21.9036 8.09644 27.5 15 27.5ZM17.0752 10.4625C17.4061 10.4625 17.9323 10.5207 18.3219 10.5986L18.6721 8.39771C17.9126 8.24188 17.3282 8.125 16.5298 8.125C14.2317 8.125 13.3165 9.21583 13.3165 11.1633V12.585H11.875V14.8836H13.3165V21.875H16.121V14.8836H18.1656L18.3609 12.585H16.121V11.4754C16.121 10.8521 16.1792 10.4625 17.0752 10.4625Z" fill="white"/>
<path fill-rule="evenodd" clip-rule="evenodd" d="M55 27.5C61.9036 27.5 67.5 21.9036 67.5 15C67.5 8.09644 61.9036 2.5 55 2.5C48.0964 2.5 42.5 8.09644 42.5 15C42.5 21.9036 48.0964 27.5 55 27.5ZM58.0307 8.89521C57.2398 8.85913 57.0026 8.85148 55 8.85148C52.9974 8.85148 52.7602 8.85913 51.9694 8.89521C51.2381 8.92856 50.841 9.05074 50.5767 9.15345C50.2266 9.2895 49.9768 9.45202 49.7144 9.71449C49.4519 9.97692 49.2894 10.2268 49.1533 10.5768C49.0506 10.8411 48.9284 11.2382 48.8951 11.9695C48.859 12.7603 48.8514 12.9975 48.8514 15.0001C48.8514 17.0027 48.859 17.2399 48.8951 18.0307C48.9284 18.762 49.0506 19.1591 49.1533 19.4234C49.2894 19.7735 49.4519 20.0233 49.7144 20.2857C49.9768 20.5482 50.2266 20.7107 50.5767 20.8468C50.841 20.9495 51.2381 21.0717 51.9694 21.105C52.7601 21.1411 52.9973 21.1487 55 21.1487C57.0027 21.1487 57.2399 21.1411 58.0307 21.105C58.7619 21.0717 59.159 20.9495 59.4233 20.8468C59.7734 20.7107 60.0232 20.5482 60.2857 20.2857C60.5481 20.0233 60.7106 19.7735 60.8467 19.4234C60.9494 19.1591 61.0716 18.762 61.1049 18.0307C61.141 17.2399 61.1487 17.0027 61.1487 15.0001C61.1487 12.9975 61.141 12.7603 61.1049 11.9695C61.0716 11.2382 60.9494 10.8411 60.8467 10.5768C60.7106 10.2268 60.5481 9.97692 60.2857 9.71446C60.0232 9.45202 59.7734 9.2895 59.4233 9.15345C59.159 9.05074 58.7619 8.92856 58.0307 8.89521ZM51.9078 7.54527C52.7077 7.50877 52.9631 7.50013 55 7.50013C57.0369 7.50013 57.2923 7.50877 58.0923 7.54527C58.8905 7.58168 59.4357 7.70847 59.9128 7.89386C60.406 8.08553 60.8242 8.34198 61.2412 8.75892C61.6582 9.1759 61.9146 9.59415 62.1063 10.0873C62.2917 10.5644 62.4185 11.1096 62.4549 11.9079C62.4914 12.7078 62.5 12.9632 62.5 15.0001C62.5 17.037 62.4914 17.2924 62.4549 18.0923C62.4185 18.8906 62.2917 19.4358 62.1063 19.9129C61.9146 20.4061 61.6582 20.8243 61.2412 21.2413C60.8242 21.6582 60.406 21.9147 59.9128 22.1063C59.4357 22.2917 58.8905 22.4185 58.0923 22.455C57.2923 22.4914 57.0369 22.5001 55 22.5001C52.9631 22.5001 52.7077 22.4914 51.9078 22.455C51.1095 22.4185 50.5643 22.2917 50.0872 22.1063C49.594 21.9147 49.1758 21.6582 48.7588 21.2413C48.3419 20.8243 48.0854 20.4061 47.8938 19.9129C47.7084 19.4358 47.5816 18.8906 47.5451 18.0923C47.5086 17.2924 47.5 17.037 47.5 15.0001C47.5 12.9632 47.5086 12.7078 47.5451 11.9079C47.5816 11.1096 47.7084 10.5644 47.8938 10.0873C48.0854 9.59415 48.3419 9.1759 48.7588 8.75892C49.1758 8.34198 49.594 8.08553 50.0872 7.89386C50.5643 7.70847 51.1095 7.58168 51.9078 7.54527ZM55.0035 11.1522C52.8764 11.1522 51.1521 12.8765 51.1521 15.0035C51.1521 17.1306 52.8764 18.8549 55.0035 18.8549C57.1305 18.8549 58.8548 17.1306 58.8548 15.0035C58.8548 12.8765 57.1305 11.1522 55.0035 11.1522ZM55.0035 17.5035C53.6228 17.5035 52.5035 16.3843 52.5035 15.0035C52.5035 13.6228 53.6228 12.5035 55.0035 12.5035C56.3842 12.5035 57.5035 13.6228 57.5035 15.0035C57.5035 16.3843 56.3842 17.5035 55.0035 17.5035ZM59.0067 11.8977C59.5038 11.8977 59.9067 11.4948 59.9067 10.9978C59.9067 10.5007 59.5038 10.0977 59.0067 10.0977C58.5097 10.0977 58.1067 10.5007 58.1067 10.9978C58.1067 11.4948 58.5097 11.8977 59.0067 11.8977Z" fill="white"/>
<path fill-rule="evenodd" clip-rule="evenodd" d="M95 27.5C101.904 27.5 107.5 21.9036 107.5 15C107.5 8.09644 101.904 2.5 95 2.5C88.0964 2.5 82.5 8.09644 82.5 15C82.5 21.9036 88.0964 27.5 95 27.5ZM100.733 10.6776C101.355 10.6031 101.949 10.4381 102.5 10.1931C102.088 10.8101 101.566 11.3521 100.964 11.787C100.97 11.9185 100.973 12.0515 100.973 12.185C100.973 16.2512 97.8773 20.9404 92.2172 20.9404C90.4793 20.9404 88.8619 20.4305 87.5 19.5575C87.7405 19.5865 87.9855 19.601 88.2344 19.601C89.6764 19.601 91.0033 19.1086 92.0562 18.2836C90.7098 18.2586 89.5729 17.3687 89.1814 16.1463C89.3694 16.1822 89.5624 16.2018 89.7608 16.2018C90.0413 16.2018 90.3133 16.1638 90.5713 16.0938C89.1644 15.8103 88.103 14.5669 88.103 13.0755V13.037C88.5184 13.2674 88.9924 13.4059 89.4974 13.4219C88.6709 12.87 88.1285 11.928 88.1285 10.8606C88.1285 10.2966 88.2799 9.76818 88.5449 9.31371C90.0628 11.1756 92.3302 12.401 94.888 12.529C94.8355 12.3035 94.808 12.0685 94.808 11.8275C94.808 10.1282 96.1859 8.75024 97.8853 8.75024C98.7697 8.75024 99.5702 9.12422 100.132 9.72218C100.832 9.58369 101.492 9.3282 102.086 8.97523C101.856 9.69368 101.368 10.2966 100.733 10.6776Z" fill="white"/>
<path fill-rule="evenodd" clip-rule="evenodd" d="M147.5 15C147.5 21.9036 141.904 27.5 135 27.5C128.096 27.5 122.5 21.9036 122.5 15C122.5 8.09644 128.096 2.5 135 2.5C141.904 2.5 147.5 8.09644 147.5 15ZM131.734 8.92755C131.734 9.70573 131.142 10.3355 130.215 10.3355C129.325 10.3355 128.732 9.70573 128.75 8.92755C128.732 8.11155 129.325 7.50012 130.233 7.50012C131.142 7.50012 131.716 8.11155 131.734 8.92755ZM128.825 20.5115V11.4478H131.642V20.5115H128.825ZM133.825 11.4491C133.863 12.2462 133.9 13.21 133.9 14.3406H133.901V20.5134H136.718V15.2861C136.718 15.026 136.755 14.767 136.829 14.5813C137.014 14.0627 137.477 13.5252 138.256 13.5252C139.275 13.5252 139.683 14.3217 139.683 15.4901V20.5134H142.5V15.1372C142.5 12.4691 141.11 11.2457 139.257 11.2457C137.755 11.2457 136.829 12.1161 136.458 12.6909H136.402L136.272 11.4491H133.825Z" fill="white"/>
<rect x="163" y="2.05176" width="25" height="25" rx="12.5" fill="white"/>
<path d="M182.684 10.7427C182.598 10.4256 182.431 10.1365 182.199 9.90428C181.967 9.67207 181.678 9.50492 181.36 9.41957C180.193 9.10352 175.5 9.10352 175.5 9.10352C175.5 9.10352 170.807 9.10352 169.64 9.41957C169.322 9.50492 169.033 9.67207 168.801 9.90428C168.569 10.1365 168.402 10.4256 168.316 10.7427C168.098 11.9337 167.993 13.1425 168 14.3532C167.993 15.564 168.098 16.7728 168.316 17.9638C168.402 18.2809 168.569 18.57 168.801 18.8022C169.033 19.0344 169.322 19.2015 169.64 19.2869C170.807 19.603 175.5 19.603 175.5 19.603C175.5 19.603 180.193 19.603 181.36 19.2869C181.678 19.2015 181.967 19.0344 182.199 18.8022C182.431 18.57 182.598 18.2809 182.684 17.9638C182.902 16.7728 183.007 15.564 183 14.3532C183.007 13.1425 182.902 11.9337 182.684 10.7427ZM174 16.6031V12.1034L177.895 14.3532L174 16.6031Z" fill="#0C0C0C"/>
<rect x="204" y="2.05176" width="25" height="25" rx="12.5" fill="white"/>
<path d="M221.113 21.8174H224C224 13.6799 217.269 7.05176 209 7.05176V9.88301C215.675 9.88301 221.113 15.2361 221.113 21.8174ZM216.012 21.8174H218.9C218.9 16.4455 214.456 12.0674 209 12.0674V14.8986C210.875 14.8986 212.628 15.6205 213.959 16.9236C214.611 17.5613 215.128 18.3227 215.48 19.1631C215.833 20.0036 216.014 20.906 216.012 21.8174ZM210.997 21.7986C212.094 21.7986 212.994 20.9268 212.994 19.8393C212.994 18.7611 212.094 17.8799 210.997 17.8799C209.891 17.8799 209 18.7611 209 19.8393C209 20.9268 209.891 21.7986 210.997 21.7986Z" fill="#0C0C0C"/>
</svg>
