<svg width="112" height="71" viewBox="0 0 112 71" fill="none" xmlns="http://www.w3.org/2000/svg">
<path fill-rule="evenodd" clip-rule="evenodd" d="M15 27.625C21.9036 27.625 27.5 22.0286 27.5 15.125C27.5 8.22144 21.9036 2.625 15 2.625C8.09644 2.625 2.5 8.22144 2.5 15.125C2.5 22.0286 8.09644 27.625 15 27.625ZM17.0752 10.5875C17.4061 10.5875 17.9323 10.6457 18.3219 10.7236L18.6721 8.52271C17.9126 8.36688 17.3282 8.25 16.5298 8.25C14.2317 8.25 13.3165 9.34083 13.3165 11.2883V12.71H11.875V15.0086H13.3165V22H16.121V15.0086H18.1656L18.3609 12.71H16.121V11.6004C16.121 10.9771 16.1792 10.5875 17.0752 10.5875Z" fill="white"/>
<path fill-rule="evenodd" clip-rule="evenodd" d="M55 27.625C61.9036 27.625 67.5 22.0286 67.5 15.125C67.5 8.22144 61.9036 2.625 55 2.625C48.0964 2.625 42.5 8.22144 42.5 15.125C42.5 22.0286 48.0964 27.625 55 27.625ZM58.0307 9.02021C57.2398 8.98413 57.0026 8.97648 55 8.97648C52.9974 8.97648 52.7602 8.98413 51.9694 9.02021C51.2381 9.05356 50.841 9.17574 50.5767 9.27845C50.2266 9.4145 49.9768 9.57702 49.7144 9.83949C49.4519 10.1019 49.2894 10.3518 49.1533 10.7018C49.0506 10.9661 48.9284 11.3632 48.8951 12.0945C48.859 12.8853 48.8514 13.1225 48.8514 15.1251C48.8514 17.1277 48.859 17.3649 48.8951 18.1557C48.9284 18.887 49.0506 19.2841 49.1533 19.5484C49.2894 19.8985 49.4519 20.1483 49.7144 20.4107C49.9768 20.6732 50.2266 20.8357 50.5767 20.9718C50.841 21.0745 51.2381 21.1967 51.9694 21.23C52.7601 21.2661 52.9973 21.2737 55 21.2737C57.0027 21.2737 57.2399 21.2661 58.0307 21.23C58.7619 21.1967 59.159 21.0745 59.4233 20.9718C59.7734 20.8357 60.0232 20.6732 60.2857 20.4107C60.5481 20.1483 60.7106 19.8985 60.8467 19.5484C60.9494 19.2841 61.0716 18.887 61.1049 18.1557C61.141 17.3649 61.1487 17.1277 61.1487 15.1251C61.1487 13.1225 61.141 12.8853 61.1049 12.0945C61.0716 11.3632 60.9494 10.9661 60.8467 10.7018C60.7106 10.3518 60.5481 10.1019 60.2857 9.83946C60.0232 9.57702 59.7734 9.4145 59.4233 9.27845C59.159 9.17574 58.7619 9.05356 58.0307 9.02021ZM51.9078 7.67027C52.7077 7.63377 52.9631 7.62513 55 7.62513C57.0369 7.62513 57.2923 7.63377 58.0923 7.67027C58.8905 7.70668 59.4357 7.83347 59.9128 8.01886C60.406 8.21053 60.8242 8.46698 61.2412 8.88392C61.6582 9.3009 61.9146 9.71915 62.1063 10.2123C62.2917 10.6894 62.4185 11.2346 62.4549 12.0329C62.4914 12.8328 62.5 13.0882 62.5 15.1251C62.5 17.162 62.4914 17.4174 62.4549 18.2173C62.4185 19.0156 62.2917 19.5608 62.1063 20.0379C61.9146 20.5311 61.6582 20.9493 61.2412 21.3663C60.8242 21.7832 60.406 22.0397 59.9128 22.2313C59.4357 22.4167 58.8905 22.5435 58.0923 22.58C57.2923 22.6164 57.0369 22.6251 55 22.6251C52.9631 22.6251 52.7077 22.6164 51.9078 22.58C51.1095 22.5435 50.5643 22.4167 50.0872 22.2313C49.594 22.0397 49.1758 21.7832 48.7588 21.3663C48.3419 20.9493 48.0854 20.5311 47.8938 20.0379C47.7084 19.5608 47.5816 19.0156 47.5451 18.2173C47.5086 17.4174 47.5 17.162 47.5 15.1251C47.5 13.0882 47.5086 12.8328 47.5451 12.0329C47.5816 11.2346 47.7084 10.6894 47.8938 10.2123C48.0854 9.71915 48.3419 9.3009 48.7588 8.88392C49.1758 8.46698 49.594 8.21053 50.0872 8.01886C50.5643 7.83347 51.1095 7.70668 51.9078 7.67027ZM55.0035 11.2772C52.8764 11.2772 51.1521 13.0015 51.1521 15.1285C51.1521 17.2556 52.8764 18.9799 55.0035 18.9799C57.1305 18.9799 58.8548 17.2556 58.8548 15.1285C58.8548 13.0015 57.1305 11.2772 55.0035 11.2772ZM55.0035 17.6285C53.6228 17.6285 52.5035 16.5093 52.5035 15.1285C52.5035 13.7478 53.6228 12.6285 55.0035 12.6285C56.3842 12.6285 57.5035 13.7478 57.5035 15.1285C57.5035 16.5093 56.3842 17.6285 55.0035 17.6285ZM59.0067 12.0227C59.5038 12.0227 59.9067 11.6198 59.9067 11.1228C59.9067 10.6257 59.5038 10.2227 59.0067 10.2227C58.5097 10.2227 58.1067 10.6257 58.1067 11.1228C58.1067 11.6198 58.5097 12.0227 59.0067 12.0227Z" fill="white"/>
<path fill-rule="evenodd" clip-rule="evenodd" d="M95 27.625C101.904 27.625 107.5 22.0286 107.5 15.125C107.5 8.22144 101.904 2.625 95 2.625C88.0964 2.625 82.5 8.22144 82.5 15.125C82.5 22.0286 88.0964 27.625 95 27.625ZM100.733 10.8026C101.355 10.7281 101.949 10.5631 102.5 10.3181C102.088 10.9351 101.566 11.4771 100.964 11.912C100.97 12.0435 100.973 12.1765 100.973 12.31C100.973 16.3762 97.8773 21.0654 92.2172 21.0654C90.4793 21.0654 88.8619 20.5555 87.5 19.6825C87.7405 19.7115 87.9855 19.726 88.2344 19.726C89.6764 19.726 91.0033 19.2336 92.0562 18.4086C90.7098 18.3836 89.5729 17.4937 89.1814 16.2713C89.3694 16.3072 89.5624 16.3268 89.7608 16.3268C90.0413 16.3268 90.3133 16.2888 90.5713 16.2188C89.1644 15.9353 88.103 14.6919 88.103 13.2005V13.162C88.5184 13.3924 88.9924 13.5309 89.4974 13.5469C88.6709 12.995 88.1285 12.053 88.1285 10.9856C88.1285 10.4216 88.2799 9.89318 88.5449 9.43871C90.0628 11.3006 92.3302 12.526 94.888 12.654C94.8355 12.4285 94.808 12.1935 94.808 11.9525C94.808 10.2532 96.1859 8.87524 97.8853 8.87524C98.7697 8.87524 99.5702 9.24922 100.132 9.84718C100.832 9.70869 101.492 9.4532 102.086 9.10023C101.856 9.81868 101.368 10.4216 100.733 10.8026Z" fill="white"/>
<path fill-rule="evenodd" clip-rule="evenodd" d="M27.5 55.125C27.5 62.0286 21.9036 67.625 15 67.625C8.09644 67.625 2.5 62.0286 2.5 55.125C2.5 48.2214 8.09644 42.625 15 42.625C21.9036 42.625 27.5 48.2214 27.5 55.125ZM11.7342 49.0526C11.7342 49.8307 11.1417 50.4605 10.2151 50.4605C9.3246 50.4605 8.73208 49.8307 8.75041 49.0526C8.73208 48.2365 9.32458 47.6251 10.2328 47.6251C11.1417 47.6251 11.7165 48.2365 11.7342 49.0526ZM8.82491 60.6365V51.5728H11.642V60.6365H8.82491ZM13.8253 51.5741C13.8626 52.3712 13.8998 53.335 13.8998 54.4656H13.901V60.6384H16.718V55.4111C16.718 55.151 16.7547 54.892 16.8292 54.7063C17.0143 54.1877 17.4773 53.6502 18.2561 53.6502C19.2755 53.6502 19.6829 54.4467 19.6829 55.6151V60.6384H22.5V55.2622C22.5 52.5941 21.1098 51.3707 19.2566 51.3707C17.7552 51.3707 16.8286 52.2411 16.4579 52.8159H16.4023L16.2722 51.5741H13.8253Z" fill="white"/>
<rect x="43" y="42.1768" width="25" height="25" rx="12.5" fill="white"/>
<path d="M62.6835 50.8677C62.5982 50.5506 62.431 50.2615 62.1988 50.0293C61.9666 49.7971 61.6775 49.6299 61.3604 49.5446C60.1926 49.2285 55.5 49.2285 55.5 49.2285C55.5 49.2285 50.8074 49.2285 49.6396 49.5446C49.3225 49.6299 49.0334 49.7971 48.8012 50.0293C48.569 50.2615 48.4018 50.5506 48.3165 50.8677C48.0984 52.0587 47.9926 53.2675 48.0004 54.4782C47.9926 55.689 48.0984 56.8978 48.3165 58.0888C48.4018 58.4059 48.569 58.695 48.8012 58.9272C49.0334 59.1594 49.3225 59.3265 49.6396 59.4119C50.8074 59.728 55.5 59.728 55.5 59.728C55.5 59.728 60.1926 59.728 61.3604 59.4119C61.6775 59.3265 61.9666 59.1594 62.1988 58.9272C62.431 58.695 62.5982 58.4059 62.6835 58.0888C62.9016 56.8978 63.0074 55.689 62.9996 54.4782C63.0074 53.2675 62.9016 52.0587 62.6835 50.8677ZM54.0001 56.7281V52.2284L57.8945 54.4782L54.0001 56.7281Z" fill="#0C0C0C"/>
<rect x="84" y="42.1768" width="25" height="25" rx="12.5" fill="white"/>
<path d="M101.113 61.9424H104C104 53.8049 97.2687 47.1768 89 47.1768V50.008C95.675 50.008 101.113 55.3611 101.113 61.9424ZM96.0125 61.9424H98.9C98.9 56.5705 94.4563 52.1924 89 52.1924V55.0236C90.875 55.0236 92.6281 55.7455 93.9594 57.0486C94.6105 57.6863 95.1276 58.4477 95.4802 59.2881C95.8328 60.1286 96.0138 61.031 96.0125 61.9424ZM90.9969 61.9236C92.0938 61.9236 92.9938 61.0518 92.9938 59.9643C92.9938 58.8861 92.0938 58.0049 90.9969 58.0049C89.8906 58.0049 89 58.8861 89 59.9643C89 61.0518 89.8906 61.9236 90.9969 61.9236Z" fill="#0C0C0C"/>
</svg>
