<svg width="32" height="17" viewBox="0 0 32 17" fill="none" xmlns="http://www.w3.org/2000/svg">
<path d="M14 9C14 4.58172 17.5817 1 22 1H24C28.4183 1 32 4.58172 32 9C32 13.4183 28.4183 17 24 17H22C17.5817 17 14 13.4183 14 9Z" fill="white"/>
<path d="M30 9C30 11.1217 29.1571 13.1566 27.6569 14.6569C26.1566 16.1571 24.1217 17 22 17C19.8783 17 17.8434 16.1571 16.3431 14.6569C14.8429 13.1566 14 11.1217 14 9C14 6.87827 14.8429 4.84344 16.3431 3.34315C17.8434 1.84285 19.8783 1 22 1C24.1217 1 26.1566 1.84285 27.6569 3.34315C29.1571 4.84344 30 6.87827 30 9Z" fill="url(#paint0_linear_813_398)"/>
<g filter="url(#filter0_i_813_398)">
<path d="M30 9C30 11.1217 29.1571 13.1566 27.6569 14.6569C26.1566 16.1571 24.1217 17 22 17C19.8783 17 17.8434 16.1571 16.3431 14.6569C14.8429 13.1566 14 11.1217 14 9C14 6.87827 14.8429 4.84344 16.3431 3.34315C17.8434 1.84285 19.8783 1 22 1C24.1217 1 26.1566 1.84285 27.6569 3.34315C29.1571 4.84344 30 6.87827 30 9Z" fill="#FEE86F"/>
</g>
<path d="M19.643 11.888C19.485 13.733 20.369 15 22 15C23.63 15 24.515 13.733 24.357 11.888C24.2 10.042 23.242 9 22 9C20.758 9 19.8 10.042 19.643 11.888Z" fill="url(#paint1_linear_813_398)"/>
<path d="M17.5 6.5C17.5 5.672 18.059 5 18.75 5C19.441 5 20 5.672 20 6.5C20 7.329 19.441 8 18.75 8C18.059 8 17.5 7.329 17.5 6.5ZM24 6.5C24 5.672 24.56 5 25.25 5C25.941 5 26.5 5.672 26.5 6.5C26.5 7.329 25.941 8 25.25 8C24.56 8 24 7.329 24 6.5Z" fill="url(#paint2_linear_813_398)"/>
<g filter="url(#filter1_i_813_398)">
<path d="M17.5 6.5C17.5 5.672 18.059 5 18.75 5C19.441 5 20 5.672 20 6.5C20 7.329 19.441 8 18.75 8C18.059 8 17.5 7.329 17.5 6.5ZM24 6.5C24 5.672 24.56 5 25.25 5C25.941 5 26.5 5.672 26.5 6.5C26.5 7.329 25.941 8 25.25 8C24.56 8 24 7.329 24 6.5Z" fill="black"/>
</g>
<path d="M18.481 5.56717C18.667 5.60917 18.771 5.81917 18.713 6.03617C18.656 6.25417 18.459 6.39617 18.273 6.35417C18.087 6.31217 17.983 6.10217 18.041 5.88417C18.098 5.66817 18.295 5.52417 18.481 5.56717ZM25.139 5.63017C25.345 5.67717 25.461 5.91017 25.397 6.15017C25.333 6.39317 25.115 6.55017 24.908 6.50417C24.702 6.45817 24.586 6.22417 24.65 5.98317C24.713 5.74117 24.932 5.58317 25.14 5.63017H25.139Z" fill="#4E506A"/>
<g filter="url(#filter2_d_813_398)">
<path d="M25.068 2.69583C25.12 2.69083 25.172 2.68883 25.225 2.68883C25.712 2.68883 26.215 2.89283 26.597 3.25083C26.6659 3.31649 26.7067 3.4063 26.7108 3.50139C26.7149 3.59649 26.682 3.68948 26.619 3.76083C26.5886 3.79582 26.5514 3.8243 26.5096 3.84454C26.4679 3.86478 26.4225 3.87637 26.3761 3.87861C26.3298 3.88085 26.2835 3.8737 26.24 3.85758C26.1965 3.84147 26.1567 3.81672 26.123 3.78483C25.848 3.52583 25.467 3.38483 25.131 3.41583C25.0145 3.42455 24.9012 3.45871 24.7993 3.51589C24.6974 3.57308 24.6092 3.65191 24.541 3.74683C24.5136 3.78403 24.4791 3.81537 24.4394 3.839C24.3997 3.86263 24.3556 3.87807 24.3099 3.88441C24.2641 3.89074 24.2175 3.88785 24.1729 3.8759C24.1283 3.86395 24.0865 3.84319 24.05 3.81483C23.9753 3.75549 23.9266 3.66945 23.9141 3.57487C23.9016 3.48028 23.9263 3.38454 23.983 3.30783C24.109 3.13357 24.2712 2.98864 24.4585 2.883C24.6458 2.77736 24.8537 2.71351 25.068 2.69583ZM17.403 3.25083C17.7738 2.89822 18.2634 2.69765 18.775 2.68883C19.0167 2.68359 19.2561 2.73719 19.4724 2.84503C19.6888 2.95286 19.8757 3.11169 20.017 3.30783C20.0736 3.3845 20.0984 3.4801 20.0861 3.57461C20.0738 3.66912 20.0254 3.7552 19.951 3.81483C19.9145 3.84321 19.8726 3.864 19.8279 3.87596C19.7832 3.88792 19.7365 3.89082 19.6907 3.88448C19.6449 3.87815 19.6007 3.86271 19.561 3.83906C19.5212 3.81542 19.4865 3.78406 19.459 3.74683C19.3908 3.65195 19.3026 3.57316 19.2007 3.51598C19.0988 3.4588 18.9856 3.42462 18.869 3.41583C18.534 3.38483 18.152 3.52583 17.877 3.78483C17.8433 3.81672 17.8035 3.84147 17.76 3.85758C17.7166 3.8737 17.6702 3.88085 17.6239 3.87861C17.5776 3.87637 17.5322 3.86478 17.4904 3.84454C17.4487 3.8243 17.4115 3.79582 17.381 3.76083C17.318 3.68948 17.2851 3.59649 17.2892 3.50139C17.2933 3.4063 17.3341 3.31649 17.403 3.25083Z" fill="black"/>
</g>
<path d="M25.068 2.69583C25.12 2.69083 25.172 2.68883 25.225 2.68883C25.712 2.68883 26.215 2.89283 26.597 3.25083C26.6659 3.31649 26.7067 3.4063 26.7108 3.50139C26.7149 3.59649 26.682 3.68948 26.619 3.76083C26.5886 3.79582 26.5514 3.8243 26.5096 3.84454C26.4679 3.86478 26.4225 3.87637 26.3761 3.87861C26.3298 3.88085 26.2835 3.8737 26.24 3.85758C26.1965 3.84147 26.1567 3.81672 26.123 3.78483C25.848 3.52583 25.467 3.38483 25.131 3.41583C25.0145 3.42455 24.9012 3.45871 24.7993 3.51589C24.6974 3.57308 24.6092 3.65191 24.541 3.74683C24.5136 3.78403 24.4791 3.81537 24.4394 3.839C24.3997 3.86263 24.3556 3.87807 24.3099 3.88441C24.2641 3.89074 24.2175 3.88785 24.1729 3.8759C24.1283 3.86395 24.0865 3.84319 24.05 3.81483C23.9753 3.75549 23.9266 3.66945 23.9141 3.57487C23.9016 3.48028 23.9263 3.38454 23.983 3.30783C24.109 3.13357 24.2712 2.98864 24.4585 2.883C24.6458 2.77736 24.8537 2.71351 25.068 2.69583ZM17.403 3.25083C17.7738 2.89822 18.2634 2.69765 18.775 2.68883C19.0167 2.68359 19.2561 2.73719 19.4724 2.84503C19.6888 2.95286 19.8757 3.11169 20.017 3.30783C20.0736 3.3845 20.0984 3.4801 20.0861 3.57461C20.0738 3.66912 20.0254 3.7552 19.951 3.81483C19.9145 3.84321 19.8726 3.864 19.8279 3.87596C19.7832 3.88792 19.7365 3.89082 19.6907 3.88448C19.6449 3.87815 19.6007 3.86271 19.561 3.83906C19.5212 3.81542 19.4865 3.78406 19.459 3.74683C19.3908 3.65195 19.3026 3.57316 19.2007 3.51598C19.0988 3.4588 18.9856 3.42462 18.869 3.41583C18.534 3.38483 18.152 3.52583 17.877 3.78483C17.8433 3.81672 17.8035 3.84147 17.76 3.85758C17.7166 3.8737 17.6702 3.88085 17.6239 3.87861C17.5776 3.87637 17.5322 3.86478 17.4904 3.84454C17.4487 3.8243 17.4115 3.79582 17.381 3.76083C17.318 3.68948 17.2851 3.59649 17.2892 3.50139C17.2933 3.4063 17.3341 3.31649 17.403 3.25083Z" fill="url(#paint3_linear_813_398)"/>
<path d="M0 9C0 4.58172 3.58172 1 8 1H10C14.4183 1 18 4.58172 18 9C18 13.4183 14.4183 17 10 17H8C3.58172 17 0 13.4183 0 9Z" fill="white"/>
<path d="M8 1C5.87827 1 3.84344 1.84285 2.34315 3.34315C0.842855 4.84344 0 6.87827 0 9C0 11.1217 0.842855 13.1566 2.34315 14.6569C3.84344 16.1571 5.87827 17 8 17C10.1217 17 12.1566 16.1571 13.6569 14.6569C15.1571 13.1566 16 11.1217 16 9C16 6.87827 15.1571 4.84344 13.6569 3.34315C12.1566 1.84285 10.1217 1 8 1V1Z" fill="url(#paint4_linear_813_398)"/>
<g filter="url(#filter3_i_813_398)">
<path d="M8 1C5.87827 1 3.84344 1.84285 2.34315 3.34315C0.842855 4.84344 0 6.87827 0 9C0 11.1217 0.842855 13.1566 2.34315 14.6569C3.84344 16.1571 5.87827 17 8 17C10.1217 17 12.1566 16.1571 13.6569 14.6569C15.1571 13.1566 16 11.1217 16 9C16 6.87827 15.1571 4.84344 13.6569 3.34315C12.1566 1.84285 10.1217 1 8 1V1Z" fill="#1199F6"/>
</g>
<path d="M12.162 8.338C12.338 8.461 12.5 8.583 12.5 9.012C12.5 9.442 12.271 9.616 12.026 9.737C12.1262 9.90028 12.1581 10.0964 12.115 10.283C12.038 10.627 11.723 10.894 11.443 10.973C11.564 11.167 11.602 11.358 11.458 11.593C11.273 11.888 11.112 12 10.4 12H7.5C6.512 12 6 11.454 6 11V8.665C6 7.435 7.467 6.39 7.467 5.535L7.361 4.47C7.356 4.405 7.369 4.246 7.419 4.2C7.499 4.121 7.72 4 8.054 4C8.272 4 8.417 4.041 8.588 4.123C9.169 4.4 9.32 5.101 9.32 5.665C9.32 5.936 8.906 6.748 8.85 7.029C8.85 7.029 9.717 6.837 10.729 6.83C11.79 6.824 12.478 7.02 12.478 7.672C12.478 7.933 12.259 8.195 12.162 8.338ZM3.6 8H4.4C4.55913 8 4.71174 8.06321 4.82426 8.17574C4.93679 8.28826 5 8.44087 5 8.6V12.4C5 12.5591 4.93679 12.7117 4.82426 12.8243C4.71174 12.9368 4.55913 13 4.4 13H3.6C3.44087 13 3.28826 12.9368 3.17574 12.8243C3.06321 12.7117 3 12.5591 3 12.4V8.6C3 8.44087 3.06321 8.28826 3.17574 8.17574C3.28826 8.06321 3.44087 8 3.6 8Z" fill="white"/>
<defs>
<filter id="filter0_i_813_398" x="14" y="0" width="16" height="17" filterUnits="userSpaceOnUse" color-interpolation-filters="sRGB">
<feFlood flood-opacity="0" result="BackgroundImageFix"/>
<feBlend mode="normal" in="SourceGraphic" in2="BackgroundImageFix" result="shape"/>
<feColorMatrix in="SourceAlpha" type="matrix" values="0 0 0 0 0 0 0 0 0 0 0 0 0 0 0 0 0 0 127 0" result="hardAlpha"/>
<feOffset dy="-1"/>
<feGaussianBlur stdDeviation="1"/>
<feComposite in2="hardAlpha" operator="arithmetic" k2="-1" k3="1"/>
<feColorMatrix type="matrix" values="0 0 0 0 0.921365 0 0 0 0 0.460683 0 0 0 0 0 0 0 0 0.35 0"/>
<feBlend mode="normal" in2="shape" result="effect1_innerShadow_813_398"/>
</filter>
<filter id="filter1_i_813_398" x="17.5" y="5" width="9" height="3" filterUnits="userSpaceOnUse" color-interpolation-filters="sRGB">
<feFlood flood-opacity="0" result="BackgroundImageFix"/>
<feBlend mode="normal" in="SourceGraphic" in2="BackgroundImageFix" result="shape"/>
<feColorMatrix in="SourceAlpha" type="matrix" values="0 0 0 0 0 0 0 0 0 0 0 0 0 0 0 0 0 0 127 0" result="hardAlpha"/>
<feOffset/>
<feGaussianBlur stdDeviation="0.5"/>
<feComposite in2="hardAlpha" operator="arithmetic" k2="-1" k3="1"/>
<feColorMatrix type="matrix" values="0 0 0 0 0.0980392 0 0 0 0 0.101961 0 0 0 0 0.2 0 0 0 0.819684 0"/>
<feBlend mode="normal" in2="shape" result="effect1_innerShadow_813_398"/>
</filter>
<filter id="filter2_d_813_398" x="14.2889" y="0.688477" width="15.4223" height="7.19922" filterUnits="userSpaceOnUse" color-interpolation-filters="sRGB">
<feFlood flood-opacity="0" result="BackgroundImageFix"/>
<feColorMatrix in="SourceAlpha" type="matrix" values="0 0 0 0 0 0 0 0 0 0 0 0 0 0 0 0 0 0 127 0" result="hardAlpha"/>
<feOffset dy="1"/>
<feGaussianBlur stdDeviation="1.5"/>
<feColorMatrix type="matrix" values="0 0 0 0 0.803922 0 0 0 0 0.388235 0 0 0 0 0.00392157 0 0 0 0.145679 0"/>
<feBlend mode="normal" in2="BackgroundImageFix" result="effect1_dropShadow_813_398"/>
<feBlend mode="normal" in="SourceGraphic" in2="effect1_dropShadow_813_398" result="shape"/>
</filter>
<filter id="filter3_i_813_398" x="0" y="0" width="16" height="17" filterUnits="userSpaceOnUse" color-interpolation-filters="sRGB">
<feFlood flood-opacity="0" result="BackgroundImageFix"/>
<feBlend mode="normal" in="SourceGraphic" in2="BackgroundImageFix" result="shape"/>
<feColorMatrix in="SourceAlpha" type="matrix" values="0 0 0 0 0 0 0 0 0 0 0 0 0 0 0 0 0 0 127 0" result="hardAlpha"/>
<feOffset dy="-1"/>
<feGaussianBlur stdDeviation="1"/>
<feComposite in2="hardAlpha" operator="arithmetic" k2="-1" k3="1"/>
<feColorMatrix type="matrix" values="0 0 0 0 0 0 0 0 0 0.299356 0 0 0 0 0.681188 0 0 0 0.349568 0"/>
<feBlend mode="normal" in2="shape" result="effect1_innerShadow_813_398"/>
</filter>
<linearGradient id="paint0_linear_813_398" x1="22" y1="2.64" x2="22" y2="17" gradientUnits="userSpaceOnUse">
<stop stop-color="#FEEA70"/>
<stop offset="1" stop-color="#F69B30"/>
</linearGradient>
<linearGradient id="paint1_linear_813_398" x1="22" y1="9" x2="22" y2="15" gradientUnits="userSpaceOnUse">
<stop stop-color="#472315"/>
<stop offset="1" stop-color="#8B3A0E"/>
</linearGradient>
<linearGradient id="paint2_linear_813_398" x1="22" y1="5" x2="22" y2="8" gradientUnits="userSpaceOnUse">
<stop stop-color="#191A33"/>
<stop offset="0.87162" stop-color="#3B426A"/>
</linearGradient>
<linearGradient id="paint3_linear_813_398" x1="22" y1="2.68848" x2="22" y2="3.88775" gradientUnits="userSpaceOnUse">
<stop stop-color="#E78E0D"/>
<stop offset="1" stop-color="#CB6000"/>
</linearGradient>
<linearGradient id="paint4_linear_813_398" x1="8" y1="1" x2="8" y2="17" gradientUnits="userSpaceOnUse">
<stop stop-color="#18AFFF"/>
<stop offset="1" stop-color="#0062DF"/>
</linearGradient>
</defs>
</svg>
