<svg width="17" height="17" viewBox="0 0 17 17" fill="none" xmlns="http://www.w3.org/2000/svg">
<path d="M16.8125 8.89583C16.8125 7.645 16.1198 6.56042 15.112 6.04583C15.2339 5.70146 15.3004 5.32938 15.3004 4.9375C15.3004 3.18792 13.9467 1.77242 12.2778 1.77242C11.9057 1.77242 11.5495 1.83892 11.2202 1.97033C10.7309 0.911875 9.69542 0.1875 8.5 0.1875C7.30458 0.1875 6.27066 0.913458 5.77904 1.96875C5.4505 1.83812 5.09346 1.77083 4.72137 1.77083C3.05096 1.77083 1.69879 3.18792 1.69879 4.9375C1.69879 5.32858 1.7645 5.70067 1.88641 6.04583C0.879415 6.56042 0.186707 7.64342 0.186707 8.89583C0.186707 10.0794 0.80579 11.1109 1.72412 11.6556C1.70829 11.7902 1.69879 11.9248 1.69879 12.0625C1.69879 13.8121 3.05096 15.2292 4.72137 15.2292C5.09346 15.2292 5.44971 15.1611 5.77825 15.0312C6.26908 16.0873 7.303 16.8125 8.49921 16.8125C9.69621 16.8125 10.7301 16.0873 11.2202 15.0312C11.5487 15.1603 11.905 15.2276 12.2778 15.2276C13.9482 15.2276 15.3004 13.8105 15.3004 12.0609C15.3004 11.9232 15.2909 11.7886 15.2743 11.6548C16.191 11.1109 16.8125 10.0794 16.8125 8.89663V8.89583ZM11.5748 6.25642L8.14375 11.4023C8.02896 11.574 7.84133 11.6667 7.64896 11.6667C7.53575 11.6667 7.42096 11.635 7.31962 11.5669L7.22858 11.4925L5.31671 9.58062C5.08475 9.34867 5.08475 8.97263 5.31671 8.74146C5.54867 8.51029 5.92471 8.50871 6.15587 8.74146L7.55712 10.1403L10.5852 5.59617C10.7673 5.32304 11.1362 5.251 11.4086 5.43229C11.6825 5.61438 11.7569 5.98329 11.5748 6.25563V6.25642Z" fill="#00AEEF"/>
</svg>
