<svg width="160" height="80" viewBox="0 0 160 80" fill="none" xmlns="http://www.w3.org/2000/svg">
<path d="M0.0167847 79.7418H159.977V0.150635H0.0167847V79.7418Z" fill="#E3120B"/>
<path d="M73.9122 16.5787L74.0076 20.4208L73.1038 20.4676C73.0324 18.1164 72.532 17.7954 68.9228 17.7954H68.1506V31.2551C68.1506 33.1143 68.628 33.6068 70.4771 33.6582L70.5233 34.3008C68.7728 34.278 67.445 34.278 66.6025 34.278C65.7165 34.278 64.3405 34.278 62.5364 34.3008L62.5826 33.6582C64.4365 33.6068 64.9149 33.1143 64.9149 31.2546V17.7949H64.0121C60.3048 17.7949 59.8038 18.1164 59.7561 20.4676L58.8575 20.4208L58.9467 16.5787C62.3303 16.6011 64.8625 16.6317 66.5611 16.6317C68.1506 16.6317 70.6272 16.6011 73.9122 16.5787ZM75.4114 33.7055C77.0896 33.7055 77.3157 33.3839 77.3409 31.0556V19.8286C77.3157 17.4956 77.0891 17.1725 75.4114 17.1725L75.3611 16.5777C77.642 16.4562 78.1645 16.3793 80.224 16.0115V23.6442C81.5497 22.2297 82.6288 21.6598 84.1081 21.6598C86.559 21.6598 87.914 23.1476 87.914 25.9741V31.0556C87.9392 33.3839 88.1647 33.7055 89.8392 33.7055L89.8823 34.3008C88.4412 34.2541 87.3391 34.2021 86.6125 34.2021C85.9064 34.2021 84.8798 34.2541 83.5032 34.3008L83.5557 33.7055C84.8798 33.5097 85.0067 33.2655 85.0314 31.0556V27.3351C85.0314 24.212 84.4832 23.1746 82.8291 23.1746C81.9489 23.1746 80.9994 23.7398 80.5991 24.6099C80.4486 24.9081 80.3478 25.2265 80.2471 25.5491C80.224 25.678 80.224 25.7725 80.224 25.8229V31.0556C80.224 33.2655 80.3746 33.5097 81.696 33.7055L81.7501 34.3008C80.3478 34.2541 79.316 34.2021 78.6183 34.2021C77.8917 34.2021 76.788 34.2541 75.3611 34.3008L75.4114 33.7055ZM93.9148 26.4224C96.2162 26.3715 96.9165 26.3169 99.2006 26.0723C98.8994 23.6686 97.9877 22.5268 96.4412 22.5268C94.9388 22.5268 94.1619 23.7143 93.9148 26.4229V26.4224ZM101.856 31.8712C100.301 33.7819 98.7762 34.5777 96.8147 34.5777C93.3377 34.5777 90.9839 32.0478 90.9839 28.3491C90.9839 24.3637 93.4128 21.6587 96.917 21.6587C98.8003 21.6587 100.155 22.3502 101.081 23.8162C101.706 24.8598 101.879 25.5756 101.903 27.3626H93.9861C94.091 31.0811 95.4639 33.211 97.7527 33.211C99.1009 33.211 100.252 32.5902 101.481 31.1798L101.856 31.8712ZM9.56593 57.213C11.5982 57.1616 12.1249 56.613 12.1249 54.5497V41.6458C12.1249 39.585 11.5982 39.0369 9.56593 38.9798L9.48514 38.3148L13.7448 38.3678L20.4806 38.2837L22.2537 38.3148L22.3638 42.3045L21.2528 42.3876C21.0613 39.8899 20.5897 39.6151 16.6374 39.6151H16.0236L15.7467 39.639V47.0676C16.2691 47.0676 16.693 47.0967 16.9438 47.0967C17.3692 47.1272 17.7956 47.1442 18.2222 47.1476C20.395 47.1476 20.896 46.6852 20.9191 44.6421H21.867C21.7831 46.2774 21.7831 47.1242 21.7831 47.9471C21.7831 48.6089 21.7831 49.5377 21.8109 50.773H20.9191C20.81 48.8026 20.363 48.4156 18.2783 48.3912L16.7743 48.3601L15.7188 48.4156V54.1663C15.7188 56.505 15.8568 56.613 18.1928 56.613C21.2832 56.613 22.2023 55.9252 22.4756 53.3055L23.5877 53.3642L22.9482 57.9289L20.81 57.9585L14.0538 57.9045L9.48462 57.9289L9.56593 57.213ZM37.6179 55.9798C36.0352 57.6016 34.7762 58.2343 32.9459 58.2343C29.2827 58.2343 26.9351 55.4037 26.9351 51.1382C26.9351 46.6863 29.4143 43.8982 33.417 43.8982C34.4714 43.8982 35.5373 44.0904 37.1819 44.532L37.2291 47.7808L35.9796 47.8639C35.5153 45.4385 35.0274 44.8613 33.417 44.8613C31.3364 44.8613 30.2537 46.6541 30.2537 50.198C30.2537 54.333 31.5536 56.6681 33.9174 56.6681C35.1392 56.6681 36.1191 56.1439 37.2045 54.9912L37.6179 55.9798ZM43.9853 51.2987C44.2613 55.1824 45.568 57.2962 47.7057 57.2962C49.7044 57.2962 50.9021 55.239 50.9021 51.8234C50.9021 47.759 49.2575 44.9424 46.9839 44.9424C44.9585 44.9424 43.9271 46.6302 43.9271 50.0655C43.9271 50.4785 43.9271 50.8894 43.9853 51.2993V51.2987ZM40.5849 51.6042V51.1871C40.5849 46.5471 43.1093 43.8987 47.4015 43.8987C51.3831 43.8987 54.2143 46.8234 54.2143 51.078C54.2143 55.3476 51.4639 58.2349 47.3181 58.2349C43.3616 58.2349 40.725 55.5959 40.5849 51.6042ZM57.4951 57.2712C59.3065 57.2712 59.5819 56.9128 59.5819 54.3325V48C59.5819 45.4941 59.3065 45.1362 57.4951 45.1081L57.4395 44.478C59.8615 44.3398 60.4213 44.2567 62.527 43.8156L62.6691 46.2504C64.2518 44.5315 65.4731 43.8982 67.1203 43.8982C69.8183 43.8982 71.3422 45.6323 71.3422 48.6915V54.333C71.317 54.5491 71.317 54.771 71.317 54.9912C71.317 56.7497 71.7876 57.2712 73.4836 57.2712L73.5381 57.9289C71.9276 57.8764 70.7053 57.8198 69.899 57.8198C69.1227 57.8198 67.956 57.8764 66.4756 57.9289L66.5244 57.2712C67.956 57.0494 68.1202 56.7777 68.1202 54.3325L68.1506 52.6473V50.1985C68.1506 46.7403 67.5106 45.6323 65.7527 45.6323C64.6668 45.6323 63.7509 46.1829 63.1958 47.1793C62.9739 47.5917 62.7814 48.2468 62.7814 48.5252V54.333C62.8087 56.7782 62.9482 57.0499 64.4187 57.2712L64.5042 57.9289C62.9482 57.8764 61.7821 57.8198 61.0046 57.8198C60.1957 57.8198 59.0096 57.8764 57.4395 57.9289L57.4951 57.2712ZM79.3223 51.2987C79.6024 55.1824 80.9034 57.2962 82.9981 57.2962C84.9978 57.2962 86.1928 55.239 86.1928 51.8234C86.1928 47.759 84.555 44.9424 82.2935 44.9424C80.2969 44.9424 79.2693 46.6302 79.2693 50.0655C79.2693 50.4785 79.2693 50.8894 79.3217 51.2993L79.3223 51.2987ZM75.8783 51.6042V51.1871C75.8783 46.5471 78.409 43.8987 82.6964 43.8987C86.7232 43.8987 89.5518 46.8234 89.5518 51.078C89.5518 55.3476 86.8034 58.2349 82.613 58.2349C78.6838 58.2349 76.0189 55.5959 75.8783 51.6042ZM92.6589 57.2712C94.5238 57.2712 94.8019 56.9128 94.8019 54.3325V48C94.8019 45.4941 94.5238 45.1362 92.6589 45.1081L92.6028 44.478C95.0752 44.3398 95.6365 44.2567 97.7307 43.8156L97.855 46.2504C99.4177 44.56 100.642 43.8982 102.28 43.8982C104.168 43.8982 105.276 44.6691 106.064 46.4645C107.761 44.5839 109.008 43.8982 110.705 43.8982C113.326 43.8982 114.793 45.6582 114.793 48.6915V54.333C114.793 54.5491 114.765 54.771 114.765 54.9912C114.765 56.7497 115.268 57.2712 116.932 57.2712L116.992 57.9289C115.379 57.8764 114.158 57.8198 113.376 57.8198C112.623 57.8198 111.48 57.8764 109.955 57.9289L110.01 57.2712C111.48 57.0494 111.62 56.7777 111.647 54.3325V50.1985C111.647 46.7938 111.043 45.6323 109.315 45.6323C108.289 45.6323 107.232 46.2504 106.787 47.1793C106.648 47.5065 106.511 47.839 106.428 48.2239C106.4 48.36 106.37 48.4702 106.37 48.5252V54.333C106.37 56.7782 106.537 57.0499 108.007 57.2712L108.068 57.9289C106.595 57.8764 105.513 57.8198 104.778 57.8198C104.058 57.8198 102.972 57.8764 101.528 57.9289L101.586 57.2712C103.057 57.0494 103.196 56.7777 103.22 54.3325V50.1985C103.22 46.7938 102.612 45.6323 100.887 45.6323C99.8374 45.6323 98.8905 46.2073 98.3623 47.1793C98.1388 47.6172 97.9599 48.2468 97.9599 48.5252V54.333C97.9877 56.7782 98.112 57.0499 99.5851 57.2712L99.6407 57.9289C98.112 57.8764 96.9905 57.8198 96.2162 57.8198C95.4067 57.8198 94.2154 57.8764 92.6028 57.9289L92.6589 57.2712ZM121.181 39.2312C121.18 38.9919 121.227 38.7548 121.319 38.5334C121.411 38.3121 121.546 38.111 121.717 37.9415C121.888 37.7721 122.09 37.6377 122.314 37.5462C122.537 37.4546 122.776 37.4076 123.018 37.4078C124.049 37.4078 124.879 38.2541 124.879 39.2312C124.879 40.2712 124.076 41.0987 123.018 41.0987C121.964 41.0987 121.181 40.3003 121.181 39.2312ZM124.739 43.8156V52.6473L124.765 54.3325C124.765 56.9123 125.02 57.2702 126.905 57.2702L126.963 57.9289C125.238 57.8764 123.989 57.8203 123.13 57.8203C122.298 57.8203 121.08 57.8764 119.399 57.9289L119.451 57.2702C121.285 57.2702 121.547 56.9123 121.547 54.3325L121.573 52.6473V49.7611L121.547 48.0011C121.547 45.4941 121.285 45.1362 119.451 45.1086L119.399 44.4775C121.908 44.3138 122.488 44.2291 124.739 43.8156ZM130.307 57.4369L130.198 54.6297L131.612 54.5782C132.251 56.6946 132.67 57.105 134.143 57.105C135.418 57.105 136.254 56.4473 136.254 55.4593C136.254 54.5206 135.672 53.839 133.918 52.6749C133.031 52.0702 132.422 51.6541 132.089 51.4099C131.364 50.8608 130.837 50.1985 130.558 49.4598C130.388 49.0463 130.307 48.5538 130.307 47.9756C130.307 45.5242 132.034 43.8982 134.641 43.8982C135.612 43.8982 136.168 43.9803 138.372 44.5029L138.432 47.2333L137.02 47.2904C136.706 45.4941 136.142 44.8613 134.838 44.8613C133.588 44.8613 132.697 45.5772 132.697 46.546C132.697 47.5065 133.145 48.0837 134.588 48.9907C135.891 49.8452 136.889 50.6115 137.568 51.2167C138.347 51.9575 138.793 52.8915 138.793 53.931C138.793 56.3606 136.731 58.2343 134.087 58.2343C133.062 58.2343 132.089 58.0084 130.307 57.4369ZM141.734 44.6977C143.924 44.5315 144.753 43.6 145.382 40.7382H146.63V44.4499H150.133L149.741 45.9611H146.63V52.6749C146.63 56.0099 147.077 56.8032 148.965 56.8032C149.408 56.8032 149.822 56.7491 150.492 56.559V57.3538C149.55 57.8769 148.245 58.1777 146.913 58.1777C145.684 58.1777 144.546 57.493 144.068 56.4738C143.651 55.6219 143.514 54.771 143.514 52.9481V45.9611H141.734V44.6977Z" fill="white"/>
</svg>
