<svg width="64" height="64" viewBox="0 0 64 64" fill="none" xmlns="http://www.w3.org/2000/svg">
<path d="M0 63.9968H64V0H0V63.9968Z" fill="#E3120B"/>
<path d="M46.1624 42.624L44.8864 51.944L40.6144 52L27.0224 51.8888L17.8136 51.9448L17.98 50.5024C22.0296 50.3904 23.084 49.2816 23.084 45.1208V18.88C23.084 14.72 22.0296 13.6096 17.98 13.4984L17.8136 12.056L26.4128 12.168L39.9488 12L43.5 12.056L43.7216 20.2112L41.5024 20.3776C41.1144 15.3288 40.1712 14.7744 32.1824 14.7744H30.9616L30.4064 14.8296V29.9192C31.4608 29.9192 32.2928 29.9752 32.7928 29.9752C33.6808 30.0312 34.5128 30.0864 35.3448 30.0864C39.7824 30.0864 40.7816 29.1424 40.8368 24.9264H42.7232C42.5568 28.3104 42.5568 30.0304 42.5568 31.6944C42.5568 33.0264 42.5568 34.9128 42.6128 37.4088H40.8368C40.6152 33.4144 39.7272 32.6376 35.4552 32.5824L32.46 32.5264L30.3512 32.6384V44.344C30.3512 49.0592 30.6288 49.2816 35.2888 49.2816C41.5576 49.2816 43.3888 47.8944 43.9432 42.5136L46.1624 42.624Z" fill="white"/>
</svg>
