<svg width="36" height="36" viewBox="0 0 36 36" fill="none" xmlns="http://www.w3.org/2000/svg">
<rect width="36" height="36" rx="18" fill="#C1CCD3"/>
<path d="M19.2712 19.7568C18.7481 20.0889 18.1404 20.2645 17.5139 20.2645C16.8874 20.2645 16.2798 20.0889 15.7566 19.7568L7.14001 14.2854C7.0922 14.255 7.04563 14.2234 7 14.1908V23.1563C7 24.1842 7.87582 25 8.93575 25H26.092C27.1713 25 28.0278 24.1658 28.0278 23.1563V14.1908C27.9821 14.2234 27.9354 14.2551 27.8875 14.2855L19.2712 19.7568Z" fill="white"/>
<path d="M7.82345 13.309L16.44 18.7804C16.7662 18.9875 17.14 19.0911 17.5139 19.0911C17.8877 19.0911 18.2616 18.9875 18.5878 18.7804L27.2044 13.309C27.72 12.9818 28.0278 12.4341 28.0278 11.8431C28.0278 10.8268 27.1597 10 26.0927 10H8.93509C7.8681 10 7 10.8268 7 11.844C7 12.4341 7.30786 12.9818 7.82345 13.309Z" fill="white"/>
</svg>
