<svg width="36" height="36" viewBox="0 0 36 36" fill="none" xmlns="http://www.w3.org/2000/svg">
<path d="M36 30.7319C36 33.6415 33.6534 36 30.7588 36H5.24121C2.34654 36 0 33.6415 0 30.7319V5.26809C0 2.35858 2.34654 0 5.24121 0H30.7588C33.6535 0 36 2.35858 36 5.26809V30.7319Z" fill="#C1CCD3"/>
<path d="M35.8151 30.6012C35.8151 33.4808 33.4926 35.8151 30.6277 35.8151H5.37222C2.50732 35.8151 0.184906 33.4808 0.184906 30.6012V5.39885C0.184906 2.51926 2.50741 0.184937 5.37222 0.184937H30.6277C33.4926 0.184937 35.8151 2.51935 35.8151 5.39885V30.6012Z" fill="#C1CCD3"/>
<path d="M17.9799 5.38037C14.412 5.38037 11.5198 8.28756 11.5198 11.8737C11.5198 15.4598 14.412 18.3672 17.9799 18.3672C21.5478 18.3672 24.4401 15.4598 24.4401 11.8737C24.4401 8.28756 21.5478 5.38037 17.9799 5.38037ZM17.9799 14.558C16.5051 14.558 15.3094 13.3561 15.3094 11.8737C15.3094 10.3913 16.5051 9.18957 17.9799 9.18957C19.4548 9.18957 20.6504 10.3913 20.6504 11.8737C20.6504 13.3561 19.4548 14.558 17.9799 14.558Z" fill="white"/>
<path d="M20.2607 23.5339C22.8469 23.0044 24.3967 21.7733 24.4787 21.7073C25.2355 21.0972 25.3571 19.9861 24.7502 19.2253C24.1433 18.4646 23.0379 18.3424 22.2809 18.9524C22.2649 18.9654 20.612 20.2399 17.8922 20.2418C15.1725 20.2399 13.4846 18.9654 13.4686 18.9524C12.7116 18.3424 11.6062 18.4646 10.9994 19.2253C10.3925 19.9861 10.514 21.0972 11.2708 21.7073C11.3539 21.7743 12.9677 23.0374 15.6265 23.5545L11.921 27.4469C11.2476 28.1488 11.2679 29.2665 11.9662 29.9433C12.3071 30.2737 12.7464 30.4379 13.1853 30.4379C13.6456 30.4379 14.1053 30.2571 14.45 29.8978L17.8923 26.212L21.6823 29.9217C22.369 30.6108 23.481 30.6097 24.1664 29.9197C24.8519 29.2297 24.851 28.1118 24.1645 27.4229L20.2607 23.5339Z" fill="white"/>
<path d="M17.892 20.2417C17.8884 20.2417 17.8955 20.2418 17.892 20.2419C17.8885 20.2418 17.8955 20.2417 17.892 20.2417Z" fill="white"/>
</svg>
