<svg width="232" height="31" viewBox="0 0 232 31" fill="none" xmlns="http://www.w3.org/2000/svg">
<path fill-rule="evenodd" clip-rule="evenodd" d="M15 27.5879C21.9036 27.5879 27.5 21.9915 27.5 15.0879C27.5 8.18433 21.9036 2.58789 15 2.58789C8.09644 2.58789 2.5 8.18433 2.5 15.0879C2.5 21.9915 8.09644 27.5879 15 27.5879ZM17.0752 10.5504C17.4061 10.5504 17.9323 10.6086 18.3219 10.6865L18.6721 8.4856C17.9126 8.32977 17.3282 8.21289 16.5298 8.21289C14.2317 8.21289 13.3165 9.30372 13.3165 11.2512V12.6729H11.875V14.9715H13.3165V21.9629H16.121V14.9715H18.1656L18.3609 12.6729H16.121V11.5633C16.121 10.94 16.1792 10.5504 17.0752 10.5504Z" fill="black"/>
<path fill-rule="evenodd" clip-rule="evenodd" d="M55 27.5879C61.9036 27.5879 67.5 21.9915 67.5 15.0879C67.5 8.18433 61.9036 2.58789 55 2.58789C48.0964 2.58789 42.5 8.18433 42.5 15.0879C42.5 21.9915 48.0964 27.5879 55 27.5879ZM58.0307 8.9831C57.2398 8.94702 57.0026 8.93937 55 8.93937C52.9974 8.93937 52.7602 8.94702 51.9694 8.9831C51.2381 9.01645 50.841 9.13863 50.5767 9.24134C50.2266 9.37739 49.9768 9.53991 49.7144 9.80238C49.4519 10.0648 49.2894 10.3147 49.1533 10.6647C49.0506 10.929 48.9284 11.3261 48.8951 12.0574C48.859 12.8482 48.8514 13.0854 48.8514 15.088C48.8514 17.0906 48.859 17.3278 48.8951 18.1186C48.9284 18.8499 49.0506 19.247 49.1533 19.5113C49.2894 19.8613 49.4519 20.1112 49.7144 20.3736C49.9768 20.6361 50.2266 20.7986 50.5767 20.9347C50.841 21.0374 51.2381 21.1596 51.9694 21.1929C52.7601 21.229 52.9973 21.2366 55 21.2366C57.0027 21.2366 57.2399 21.229 58.0307 21.1929C58.7619 21.1596 59.159 21.0374 59.4233 20.9347C59.7734 20.7986 60.0232 20.6361 60.2857 20.3736C60.5481 20.1112 60.7106 19.8613 60.8467 19.5113C60.9494 19.247 61.0716 18.8499 61.1049 18.1186C61.141 17.3278 61.1487 17.0906 61.1487 15.088C61.1487 13.0854 61.141 12.8482 61.1049 12.0574C61.0716 11.3261 60.9494 10.929 60.8467 10.6647C60.7106 10.3147 60.5481 10.0648 60.2857 9.80235C60.0232 9.53991 59.7734 9.37739 59.4233 9.24134C59.159 9.13863 58.7619 9.01645 58.0307 8.9831ZM51.9078 7.63316C52.7077 7.59666 52.9631 7.58803 55 7.58803C57.0369 7.58803 57.2923 7.59666 58.0923 7.63316C58.8905 7.66957 59.4357 7.79636 59.9128 7.98175C60.406 8.17342 60.8242 8.42987 61.2412 8.84681C61.6582 9.26379 61.9146 9.68204 62.1063 10.1752C62.2917 10.6523 62.4185 11.1975 62.4549 11.9958C62.4914 12.7957 62.5 13.0511 62.5 15.088C62.5 17.1249 62.4914 17.3803 62.4549 18.1802C62.4185 18.9785 62.2917 19.5237 62.1063 20.0008C61.9146 20.494 61.6582 20.9122 61.2412 21.3292C60.8242 21.7461 60.406 22.0026 59.9128 22.1942C59.4357 22.3796 58.8905 22.5064 58.0923 22.5428C57.2923 22.5793 57.0369 22.588 55 22.588C52.9631 22.588 52.7077 22.5793 51.9078 22.5428C51.1095 22.5064 50.5643 22.3796 50.0872 22.1942C49.594 22.0026 49.1758 21.7461 48.7588 21.3292C48.3419 20.9122 48.0854 20.494 47.8938 20.0008C47.7084 19.5237 47.5816 18.9785 47.5451 18.1802C47.5086 17.3803 47.5 17.1249 47.5 15.088C47.5 13.0511 47.5086 12.7957 47.5451 11.9958C47.5816 11.1975 47.7084 10.6523 47.8938 10.1752C48.0854 9.68204 48.3419 9.26379 48.7588 8.84681C49.1758 8.42987 49.594 8.17342 50.0872 7.98175C50.5643 7.79636 51.1095 7.66957 51.9078 7.63316ZM55.0035 11.2401C52.8764 11.2401 51.1521 12.9644 51.1521 15.0914C51.1521 17.2185 52.8764 18.9428 55.0035 18.9428C57.1305 18.9428 58.8548 17.2185 58.8548 15.0914C58.8548 12.9644 57.1305 11.2401 55.0035 11.2401ZM55.0035 17.5914C53.6228 17.5914 52.5035 16.4721 52.5035 15.0914C52.5035 13.7107 53.6228 12.5914 55.0035 12.5914C56.3842 12.5914 57.5035 13.7107 57.5035 15.0914C57.5035 16.4721 56.3842 17.5914 55.0035 17.5914ZM59.0067 11.9856C59.5038 11.9856 59.9067 11.5827 59.9067 11.0856C59.9067 10.5886 59.5038 10.1856 59.0067 10.1856C58.5097 10.1856 58.1067 10.5886 58.1067 11.0856C58.1067 11.5827 58.5097 11.9856 59.0067 11.9856Z" fill="black"/>
<path fill-rule="evenodd" clip-rule="evenodd" d="M95 27.5879C101.904 27.5879 107.5 21.9915 107.5 15.0879C107.5 8.18433 101.904 2.58789 95 2.58789C88.0964 2.58789 82.5 8.18433 82.5 15.0879C82.5 21.9915 88.0964 27.5879 95 27.5879ZM100.733 10.7655C101.355 10.691 101.949 10.526 102.5 10.281C102.088 10.898 101.566 11.44 100.964 11.8749C100.97 12.0064 100.973 12.1394 100.973 12.2729C100.973 16.3391 97.8773 21.0283 92.2172 21.0283C90.4793 21.0283 88.8619 20.5184 87.5 19.6454C87.7405 19.6744 87.9855 19.6889 88.2344 19.6889C89.6764 19.6889 91.0033 19.1964 92.0562 18.3715C90.7098 18.3465 89.5729 17.4566 89.1814 16.2341C89.3694 16.2701 89.5624 16.2896 89.7608 16.2896C90.0413 16.2896 90.3133 16.2516 90.5713 16.1816C89.1644 15.8982 88.103 14.6547 88.103 13.1633V13.1249C88.5184 13.3553 88.9924 13.4938 89.4974 13.5098C88.6709 12.9579 88.1285 12.0159 88.1285 10.9485C88.1285 10.3845 88.2799 9.85607 88.5449 9.4016C90.0628 11.2635 92.3302 12.4889 94.888 12.6169C94.8355 12.3914 94.808 12.1564 94.808 11.9154C94.808 10.216 96.1859 8.83813 97.8853 8.83813C98.7697 8.83813 99.5702 9.21211 100.132 9.81007C100.832 9.67158 101.492 9.41609 102.086 9.06312C101.856 9.78157 101.368 10.3845 100.733 10.7655Z" fill="black"/>
<path fill-rule="evenodd" clip-rule="evenodd" d="M147.5 15.0879C147.5 21.9915 141.904 27.5879 135 27.5879C128.096 27.5879 122.5 21.9915 122.5 15.0879C122.5 8.18433 128.096 2.58789 135 2.58789C141.904 2.58789 147.5 8.18433 147.5 15.0879ZM131.734 9.01544C131.734 9.79362 131.142 10.4234 130.215 10.4234C129.325 10.4234 128.732 9.79362 128.75 9.01544C128.732 8.19944 129.325 7.58801 130.233 7.58801C131.142 7.58801 131.716 8.19944 131.734 9.01544ZM128.825 20.5993V11.5356H131.642V20.5993H128.825ZM133.825 11.537C133.863 12.3341 133.9 13.2979 133.9 14.4285H133.901V20.6013H136.718V15.374C136.718 15.1139 136.755 14.8549 136.829 14.6692C137.014 14.1506 137.477 13.6131 138.256 13.6131C139.275 13.6131 139.683 14.4096 139.683 15.578V20.6013H142.5V15.225C142.5 12.557 141.11 11.3336 139.257 11.3336C137.755 11.3336 136.829 12.204 136.458 12.7788H136.402L136.272 11.537H133.825Z" fill="black"/>
<rect x="163" y="2.13965" width="25" height="25" rx="12.5" fill="black"/>
<path d="M182.684 10.8306C182.598 10.5135 182.431 10.2244 182.199 9.99217C181.967 9.75996 181.678 9.59282 181.36 9.50746C180.193 9.19141 175.5 9.19141 175.5 9.19141C175.5 9.19141 170.807 9.19141 169.64 9.50746C169.322 9.59282 169.033 9.75996 168.801 9.99217C168.569 10.2244 168.402 10.5135 168.316 10.8306C168.098 12.0216 167.993 13.2304 168 14.4411C167.993 15.6519 168.098 16.8607 168.316 18.0516C168.402 18.3687 168.569 18.6579 168.801 18.8901C169.033 19.1223 169.322 19.2894 169.64 19.3748C170.807 19.6908 175.5 19.6908 175.5 19.6908C175.5 19.6908 180.193 19.6908 181.36 19.3748C181.678 19.2894 181.967 19.1223 182.199 18.8901C182.431 18.6579 182.598 18.3687 182.684 18.0516C182.902 16.8607 183.007 15.6519 183 14.4411C183.007 13.2304 182.902 12.0216 182.684 10.8306ZM174 16.691V12.1912L177.895 14.4411L174 16.691Z" fill="white"/>
<rect x="204" y="2.13965" width="25" height="25" rx="12.5" fill="black"/>
<path d="M221.113 21.9053H224C224 13.7678 217.269 7.13965 209 7.13965V9.9709C215.675 9.9709 221.113 15.324 221.113 21.9053ZM216.012 21.9053H218.9C218.9 16.5334 214.456 12.1553 209 12.1553V14.9865C210.875 14.9865 212.628 15.7084 213.959 17.0115C214.611 17.6492 215.128 18.4106 215.48 19.251C215.833 20.0915 216.014 20.9939 216.012 21.9053ZM210.997 21.8865C212.094 21.8865 212.994 21.0146 212.994 19.9271C212.994 18.849 212.094 17.9678 210.997 17.9678C209.891 17.9678 209 18.849 209 19.9271C209 21.0146 209.891 21.8865 210.997 21.8865Z" fill="white"/>
</svg>
