<svg width="112" height="71" viewBox="0 0 112 71" fill="none" xmlns="http://www.w3.org/2000/svg">
<path fill-rule="evenodd" clip-rule="evenodd" d="M15 28.2929C21.9036 28.2929 27.5 22.6964 27.5 15.7928C27.5 8.88929 21.9036 3.29285 15 3.29285C8.09644 3.29285 2.5 8.88929 2.5 15.7928C2.5 22.6964 8.09644 28.2929 15 28.2929ZM17.0752 11.2554C17.4061 11.2554 17.9323 11.3136 18.3219 11.3915L18.6721 9.19056C17.9126 9.03472 17.3282 8.91785 16.5298 8.91785C14.2317 8.91785 13.3165 10.0087 13.3165 11.9561V13.3779H11.875V15.6764H13.3165V22.6679H16.121V15.6764H18.1656L18.3609 13.3779H16.121V12.2683C16.121 11.6449 16.1792 11.2554 17.0752 11.2554Z" fill="black"/>
<path fill-rule="evenodd" clip-rule="evenodd" d="M55 28.2929C61.9036 28.2929 67.5 22.6964 67.5 15.7928C67.5 8.88929 61.9036 3.29285 55 3.29285C48.0964 3.29285 42.5 8.88929 42.5 15.7928C42.5 22.6964 48.0964 28.2929 55 28.2929ZM58.0307 9.68806C57.2398 9.65198 57.0026 9.64433 55 9.64433C52.9974 9.64433 52.7602 9.65198 51.9694 9.68806C51.2381 9.7214 50.841 9.84358 50.5767 9.9463C50.2266 10.0823 49.9768 10.2449 49.7144 10.5073C49.4519 10.7698 49.2894 11.0196 49.1533 11.3697C49.0506 11.634 48.9284 12.0311 48.8951 12.7623C48.859 13.5532 48.8514 13.7904 48.8514 15.7929C48.8514 17.7955 48.859 18.0327 48.8951 18.8236C48.9284 19.5548 49.0506 19.9519 49.1533 20.2162C49.2894 20.5663 49.4519 20.8161 49.7144 21.0786C49.9768 21.341 50.2266 21.5036 50.5767 21.6396C50.841 21.7423 51.2381 21.8645 51.9694 21.8979C52.7601 21.9339 52.9973 21.9416 55 21.9416C57.0027 21.9416 57.2399 21.9339 58.0307 21.8979C58.7619 21.8645 59.159 21.7423 59.4233 21.6396C59.7734 21.5036 60.0232 21.341 60.2857 21.0786C60.5481 20.8161 60.7106 20.5663 60.8467 20.2162C60.9494 19.9519 61.0716 19.5548 61.1049 18.8236C61.141 18.0327 61.1487 17.7955 61.1487 15.7929C61.1487 13.7904 61.141 13.5532 61.1049 12.7623C61.0716 12.0311 60.9494 11.634 60.8467 11.3697C60.7106 11.0196 60.5481 10.7698 60.2857 10.5073C60.0232 10.2449 59.7734 10.0823 59.4233 9.9463C59.159 9.84358 58.7619 9.7214 58.0307 9.68806ZM51.9078 8.33812C52.7077 8.30162 52.9631 8.29298 55 8.29298C57.0369 8.29298 57.2923 8.30162 58.0923 8.33812C58.8905 8.37453 59.4357 8.50132 59.9128 8.68671C60.406 8.87837 60.8242 9.13482 61.2412 9.55177C61.6582 9.96874 61.9146 10.387 62.1063 10.8802C62.2917 11.3572 62.4185 11.9024 62.4549 12.7007C62.4914 13.5007 62.5 13.7561 62.5 15.7929C62.5 17.8298 62.4914 18.0852 62.4549 18.8852C62.4185 19.6835 62.2917 20.2287 62.1063 20.7057C61.9146 21.1989 61.6582 21.6172 61.2412 22.0341C60.8242 22.4511 60.406 22.7075 59.9128 22.8992C59.4357 23.0846 58.8905 23.2114 58.0923 23.2478C57.2923 23.2843 57.0369 23.2929 55 23.2929C52.9631 23.2929 52.7077 23.2843 51.9078 23.2478C51.1095 23.2114 50.5643 23.0846 50.0872 22.8992C49.594 22.7075 49.1758 22.4511 48.7588 22.0341C48.3419 21.6172 48.0854 21.1989 47.8938 20.7057C47.7084 20.2287 47.5816 19.6835 47.5451 18.8852C47.5086 18.0852 47.5 17.8298 47.5 15.7929C47.5 13.7561 47.5086 13.5007 47.5451 12.7007C47.5816 11.9024 47.7084 11.3572 47.8938 10.8802C48.0854 10.387 48.3419 9.96874 48.7588 9.55177C49.1758 9.13482 49.594 8.87837 50.0872 8.68671C50.5643 8.50132 51.1095 8.37453 51.9078 8.33812ZM55.0035 11.9451C52.8764 11.9451 51.1521 13.6693 51.1521 15.7964C51.1521 17.9234 52.8764 19.6477 55.0035 19.6477C57.1305 19.6477 58.8548 17.9234 58.8548 15.7964C58.8548 13.6693 57.1305 11.9451 55.0035 11.9451ZM55.0035 18.2964C53.6228 18.2964 52.5035 17.1771 52.5035 15.7964C52.5035 14.4157 53.6228 13.2964 55.0035 13.2964C56.3842 13.2964 57.5035 14.4157 57.5035 15.7964C57.5035 17.1771 56.3842 18.2964 55.0035 18.2964ZM59.0067 12.6906C59.5038 12.6906 59.9067 12.2876 59.9067 11.7906C59.9067 11.2935 59.5038 10.8906 59.0067 10.8906C58.5097 10.8906 58.1067 11.2935 58.1067 11.7906C58.1067 12.2876 58.5097 12.6906 59.0067 12.6906Z" fill="black"/>
<path fill-rule="evenodd" clip-rule="evenodd" d="M95 28.2929C101.904 28.2929 107.5 22.6964 107.5 15.7928C107.5 8.88929 101.904 3.29285 95 3.29285C88.0964 3.29285 82.5 8.88929 82.5 15.7928C82.5 22.6964 88.0964 28.2929 95 28.2929ZM100.733 11.4705C101.355 11.396 101.949 11.231 102.5 10.986C102.088 11.603 101.566 12.1449 100.964 12.5799C100.97 12.7114 100.973 12.8444 100.973 12.9779C100.973 17.0441 97.8773 21.7333 92.2172 21.7333C90.4793 21.7333 88.8619 21.2233 87.5 20.3504C87.7405 20.3794 87.9855 20.3939 88.2344 20.3939C89.6764 20.3939 91.0033 19.9014 92.0562 19.0765C90.7098 19.0515 89.5729 18.1615 89.1814 16.9391C89.3694 16.9751 89.5624 16.9946 89.7608 16.9946C90.0413 16.9946 90.3133 16.9566 90.5713 16.8866C89.1644 16.6031 88.103 15.3597 88.103 13.8683V13.8298C88.5184 14.0603 88.9924 14.1988 89.4974 14.2148C88.6709 13.6628 88.1285 12.7209 88.1285 11.6535C88.1285 11.0895 88.2799 10.561 88.5449 10.1066C90.0628 11.9684 92.3302 13.1938 94.888 13.3218C94.8355 13.0964 94.808 12.8614 94.808 12.6204C94.808 10.921 96.1859 9.54309 97.8853 9.54309C98.7697 9.54309 99.5702 9.91707 100.132 10.515C100.832 10.3765 101.492 10.1211 102.086 9.76807C101.856 10.4865 101.368 11.0895 100.733 11.4705Z" fill="black"/>
<path fill-rule="evenodd" clip-rule="evenodd" d="M27.5 55.7928C27.5 62.6964 21.9036 68.2929 15 68.2929C8.09644 68.2929 2.5 62.6964 2.5 55.7928C2.5 48.8893 8.09644 43.2928 15 43.2928C21.9036 43.2928 27.5 48.8893 27.5 55.7928ZM11.7342 49.7204C11.7342 50.4986 11.1417 51.1283 10.2151 51.1283C9.3246 51.1283 8.73208 50.4986 8.75041 49.7204C8.73208 48.9044 9.32458 48.293 10.2328 48.293C11.1417 48.293 11.7165 48.9044 11.7342 49.7204ZM8.82491 61.3043V52.2406H11.642V61.3043H8.82491ZM13.8253 52.2419C13.8626 53.039 13.8998 54.0029 13.8998 55.1335H13.901V61.3062H16.718V56.079C16.718 55.8188 16.7547 55.5598 16.8292 55.3742C17.0143 54.8556 17.4773 54.3181 18.2561 54.3181C19.2755 54.3181 19.6829 55.1146 19.6829 56.283V61.3062H22.5V55.93C22.5 53.262 21.1098 52.0385 19.2566 52.0385C17.7552 52.0385 16.8286 52.909 16.4579 53.4837H16.4023L16.2722 52.2419H13.8253Z" fill="black"/>
<rect x="43" y="42.8447" width="25" height="25" rx="12.5" fill="black"/>
<path d="M62.6835 51.5357C62.5982 51.2186 62.431 50.9295 62.1988 50.6972C61.9666 50.465 61.6775 50.2979 61.3604 50.2125C60.1926 49.8965 55.5 49.8965 55.5 49.8965C55.5 49.8965 50.8074 49.8965 49.6396 50.2125C49.3225 50.2979 49.0334 50.465 48.8012 50.6972C48.569 50.9295 48.4018 51.2186 48.3165 51.5357C48.0984 52.7267 47.9926 53.9355 48.0004 55.1462C47.9926 56.3569 48.0984 57.5658 48.3165 58.7567C48.4018 59.0738 48.569 59.363 48.8012 59.5952C49.0334 59.8274 49.3225 59.9945 49.6396 60.0799C50.8074 60.3959 55.5 60.3959 55.5 60.3959C55.5 60.3959 60.1926 60.3959 61.3604 60.0799C61.6775 59.9945 61.9666 59.8274 62.1988 59.5952C62.431 59.363 62.5982 59.0738 62.6835 58.7567C62.9016 57.5658 63.0074 56.3569 62.9996 55.1462C63.0074 53.9355 62.9016 52.7267 62.6835 51.5357V51.5357ZM54.0001 57.3961V52.8963L57.8945 55.1462L54.0001 57.3961Z" fill="#EAEAEA"/>
<rect x="84" y="42.8447" width="25" height="25" rx="12.5" fill="black"/>
<path d="M101.113 62.6104H104C104 54.4729 97.2687 47.8447 89 47.8447V50.676C95.675 50.676 101.113 56.0291 101.113 62.6104ZM96.0125 62.6104H98.9C98.9 57.2385 94.4563 52.8604 89 52.8604V55.6916C90.875 55.6916 92.6281 56.4135 93.9594 57.7166C94.6105 58.3543 95.1276 59.1157 95.4802 59.9561C95.8328 60.7965 96.0138 61.699 96.0125 62.6104V62.6104ZM90.9969 62.5916C92.0938 62.5916 92.9938 61.7197 92.9938 60.6322C92.9938 59.5541 92.0938 58.6729 90.9969 58.6729C89.8906 58.6729 89 59.5541 89 60.6322C89 61.7197 89.8906 62.5916 90.9969 62.5916Z" fill="#EAEAEA"/>
</svg>
