<svg width="112" height="71" viewBox="0 0 112 71" fill="none" xmlns="http://www.w3.org/2000/svg">
<path fill-rule="evenodd" clip-rule="evenodd" d="M15 28.293C21.9036 28.293 27.5 22.6965 27.5 15.793C27.5 8.88941 21.9036 3.29297 15 3.29297C8.09644 3.29297 2.5 8.88941 2.5 15.793C2.5 22.6965 8.09644 28.293 15 28.293ZM17.0752 11.2555C17.4061 11.2555 17.9323 11.3137 18.3219 11.3916L18.6721 9.19068C17.9126 9.03484 17.3282 8.91797 16.5298 8.91797C14.2317 8.91797 13.3165 10.0088 13.3165 11.9563V13.378H11.875V15.6766H13.3165V22.668H16.121V15.6766H18.1656L18.3609 13.378H16.121V12.2684C16.121 11.6451 16.1792 11.2555 17.0752 11.2555Z" fill="white"/>
<path fill-rule="evenodd" clip-rule="evenodd" d="M55 28.293C61.9036 28.293 67.5 22.6965 67.5 15.793C67.5 8.88941 61.9036 3.29297 55 3.29297C48.0964 3.29297 42.5 8.88941 42.5 15.793C42.5 22.6965 48.0964 28.293 55 28.293ZM58.0307 9.68818C57.2398 9.6521 57.0026 9.64445 55 9.64445C52.9974 9.64445 52.7602 9.6521 51.9694 9.68818C51.2381 9.72153 50.841 9.84371 50.5767 9.94642C50.2266 10.0825 49.9768 10.245 49.7144 10.5075C49.4519 10.7699 49.2894 11.0197 49.1533 11.3698C49.0506 11.6341 48.9284 12.0312 48.8951 12.7624C48.859 13.5533 48.8514 13.7905 48.8514 15.7931C48.8514 17.7957 48.859 18.0329 48.8951 18.8237C48.9284 19.555 49.0506 19.9521 49.1533 20.2163C49.2894 20.5664 49.4519 20.8163 49.7144 21.0787C49.9768 21.3412 50.2266 21.5037 50.5767 21.6397C50.841 21.7424 51.2381 21.8646 51.9694 21.898C52.7601 21.9341 52.9973 21.9417 55 21.9417C57.0027 21.9417 57.2399 21.9341 58.0307 21.898C58.7619 21.8646 59.159 21.7424 59.4233 21.6397C59.7734 21.5037 60.0232 21.3412 60.2857 21.0787C60.5481 20.8163 60.7106 20.5664 60.8467 20.2163C60.9494 19.9521 61.0716 19.555 61.1049 18.8237C61.141 18.0329 61.1487 17.7957 61.1487 15.7931C61.1487 13.7905 61.141 13.5533 61.1049 12.7624C61.0716 12.0312 60.9494 11.6341 60.8467 11.3698C60.7106 11.0197 60.5481 10.7699 60.2857 10.5074C60.0232 10.245 59.7734 10.0825 59.4233 9.94642C59.159 9.84371 58.7619 9.72153 58.0307 9.68818ZM51.9078 8.33824C52.7077 8.30174 52.9631 8.2931 55 8.2931C57.0369 8.2931 57.2923 8.30174 58.0923 8.33824C58.8905 8.37465 59.4357 8.50144 59.9128 8.68683C60.406 8.87849 60.8242 9.13494 61.2412 9.55189C61.6582 9.96886 61.9146 10.3871 62.1063 10.8803C62.2917 11.3574 62.4185 11.9026 62.4549 12.7008C62.4914 13.5008 62.5 13.7562 62.5 15.7931C62.5 17.8299 62.4914 18.0854 62.4549 18.8853C62.4185 19.6836 62.2917 20.2288 62.1063 20.7058C61.9146 21.199 61.6582 21.6173 61.2412 22.0343C60.8242 22.4512 60.406 22.7077 59.9128 22.8993C59.4357 23.0847 58.8905 23.2115 58.0923 23.2479C57.2923 23.2844 57.0369 23.2931 55 23.2931C52.9631 23.2931 52.7077 23.2844 51.9078 23.2479C51.1095 23.2115 50.5643 23.0847 50.0872 22.8993C49.594 22.7077 49.1758 22.4512 48.7588 22.0343C48.3419 21.6173 48.0854 21.199 47.8938 20.7058C47.7084 20.2288 47.5816 19.6836 47.5451 18.8853C47.5086 18.0854 47.5 17.8299 47.5 15.7931C47.5 13.7562 47.5086 13.5008 47.5451 12.7008C47.5816 11.9026 47.7084 11.3574 47.8938 10.8803C48.0854 10.3871 48.3419 9.96886 48.7588 9.55189C49.1758 9.13494 49.594 8.87849 50.0872 8.68683C50.5643 8.50144 51.1095 8.37465 51.9078 8.33824ZM55.0035 11.9452C52.8764 11.9452 51.1521 13.6695 51.1521 15.7965C51.1521 17.9236 52.8764 19.6478 55.0035 19.6478C57.1305 19.6478 58.8548 17.9236 58.8548 15.7965C58.8548 13.6695 57.1305 11.9452 55.0035 11.9452ZM55.0035 18.2965C53.6228 18.2965 52.5035 17.1772 52.5035 15.7965C52.5035 14.4158 53.6228 13.2965 55.0035 13.2965C56.3842 13.2965 57.5035 14.4158 57.5035 15.7965C57.5035 17.1772 56.3842 18.2965 55.0035 18.2965ZM59.0067 12.6907C59.5038 12.6907 59.9067 12.2878 59.9067 11.7907C59.9067 11.2937 59.5038 10.8907 59.0067 10.8907C58.5097 10.8907 58.1067 11.2937 58.1067 11.7907C58.1067 12.2878 58.5097 12.6907 59.0067 12.6907Z" fill="white"/>
<path fill-rule="evenodd" clip-rule="evenodd" d="M95 28.293C101.904 28.293 107.5 22.6965 107.5 15.793C107.5 8.88941 101.904 3.29297 95 3.29297C88.0964 3.29297 82.5 8.88941 82.5 15.793C82.5 22.6965 88.0964 28.293 95 28.293ZM100.733 11.4706C101.355 11.3961 101.949 11.2311 102.5 10.9861C102.088 11.6031 101.566 12.145 100.964 12.58C100.97 12.7115 100.973 12.8445 100.973 12.978C100.973 17.0442 97.8773 21.7334 92.2172 21.7334C90.4793 21.7334 88.8619 21.2234 87.5 20.3505C87.7405 20.3795 87.9855 20.394 88.2344 20.394C89.6764 20.394 91.0033 19.9015 92.0562 19.0766C90.7098 19.0516 89.5729 18.1616 89.1814 16.9392C89.3694 16.9752 89.5624 16.9947 89.7608 16.9947C90.0413 16.9947 90.3133 16.9567 90.5713 16.8867C89.1644 16.6032 88.103 15.3598 88.103 13.8684V13.8299C88.5184 14.0604 88.9924 14.1989 89.4974 14.2149C88.6709 13.6629 88.1285 12.721 88.1285 11.6536C88.1285 11.0896 88.2799 10.5611 88.5449 10.1067C90.0628 11.9686 92.3302 13.194 94.888 13.322C94.8355 13.0965 94.808 12.8615 94.808 12.6205C94.808 10.9211 96.1859 9.54321 97.8853 9.54321C98.7697 9.54321 99.5702 9.91719 100.132 10.5151C100.832 10.3767 101.492 10.1212 102.086 9.7682C101.856 10.4866 101.368 11.0896 100.733 11.4706Z" fill="white"/>
<path fill-rule="evenodd" clip-rule="evenodd" d="M27.5 55.793C27.5 62.6965 21.9036 68.293 15 68.293C8.09644 68.293 2.5 62.6965 2.5 55.793C2.5 48.8894 8.09644 43.293 15 43.293C21.9036 43.293 27.5 48.8894 27.5 55.793ZM11.7342 49.7205C11.7342 50.4987 11.1417 51.1285 10.2151 51.1285C9.3246 51.1285 8.73208 50.4987 8.75041 49.7205C8.73208 48.9045 9.32458 48.2931 10.2328 48.2931C11.1417 48.2931 11.7165 48.9045 11.7342 49.7205ZM8.82491 61.3044V52.2407H11.642V61.3044H8.82491ZM13.8253 52.2421C13.8626 53.0392 13.8998 54.003 13.8998 55.1336H13.901V61.3063H16.718V56.0791C16.718 55.819 16.7547 55.5599 16.8292 55.3743C17.0143 54.8557 17.4773 54.3182 18.2561 54.3182C19.2755 54.3182 19.6829 55.1147 19.6829 56.2831V61.3063H22.5V55.9301C22.5 53.2621 21.1098 52.0386 19.2566 52.0386C17.7552 52.0386 16.8286 52.9091 16.4579 53.4838H16.4023L16.2722 52.2421H13.8253Z" fill="white"/>
<rect x="43" y="42.8447" width="25" height="25" rx="12.5" fill="white"/>
<path d="M62.6835 51.5357C62.5982 51.2186 62.431 50.9295 62.1988 50.6972C61.9666 50.465 61.6775 50.2979 61.3604 50.2125C60.1926 49.8965 55.5 49.8965 55.5 49.8965C55.5 49.8965 50.8074 49.8965 49.6396 50.2125C49.3225 50.2979 49.0334 50.465 48.8012 50.6972C48.569 50.9295 48.4018 51.2186 48.3165 51.5357C48.0984 52.7267 47.9926 53.9355 48.0004 55.1462C47.9926 56.3569 48.0984 57.5658 48.3165 58.7567C48.4018 59.0738 48.569 59.363 48.8012 59.5952C49.0334 59.8274 49.3225 59.9945 49.6396 60.0799C50.8074 60.3959 55.5 60.3959 55.5 60.3959C55.5 60.3959 60.1926 60.3959 61.3604 60.0799C61.6775 59.9945 61.9666 59.8274 62.1988 59.5952C62.431 59.363 62.5982 59.0738 62.6835 58.7567C62.9016 57.5658 63.0074 56.3569 62.9996 55.1462C63.0074 53.9355 62.9016 52.7267 62.6835 51.5357V51.5357ZM54.0001 57.3961V52.8963L57.8945 55.1462L54.0001 57.3961Z" fill="#333333"/>
<rect x="84" y="42.8447" width="25" height="25" rx="12.5" fill="white"/>
<path d="M101.113 62.6104H104C104 54.4729 97.2687 47.8447 89 47.8447V50.676C95.675 50.676 101.113 56.0291 101.113 62.6104ZM96.0125 62.6104H98.9C98.9 57.2385 94.4563 52.8604 89 52.8604V55.6916C90.875 55.6916 92.6281 56.4135 93.9594 57.7166C94.6105 58.3543 95.1276 59.1157 95.4802 59.9561C95.8328 60.7965 96.0138 61.699 96.0125 62.6104V62.6104ZM90.9969 62.5916C92.0938 62.5916 92.9938 61.7197 92.9938 60.6322C92.9938 59.5541 92.0938 58.6729 90.9969 58.6729C89.8906 58.6729 89 59.5541 89 60.6322C89 61.7197 89.8906 62.5916 90.9969 62.5916Z" fill="#333333"/>
</svg>
