<svg width="12" height="14" viewBox="0 0 12 14" fill="none" xmlns="http://www.w3.org/2000/svg">
<path d="M10 9.75359C9.4936 9.75359 9.0368 9.95039 8.6904 10.2672L3.94 7.49679C3.9768 7.34639 4 7.18959 4 7.02959C4 6.86959 3.9768 6.71359 3.94 6.56319L8.64 3.81999C9.00797 4.16669 9.49442 4.35984 10 4.35999C11.1032 4.35999 12 3.46319 12 2.35999C12 1.25679 11.1032 0.359985 10 0.359985C8.8968 0.359985 8 1.25679 8 2.35999C8 2.51999 8.0232 2.67679 8.06 2.82639L3.36 5.56959C2.99181 5.22322 2.5055 5.03013 2 5.02959C0.8968 5.02959 0 5.92639 0 7.02959C0 8.13279 0.8968 9.02959 2 9.02959C2.50558 9.02944 2.99203 8.83629 3.36 8.48959L8.1104 11.26C8.07541 11.403 8.05742 11.5496 8.0568 11.6968C8.05696 12.0809 8.17099 12.4563 8.38449 12.7756C8.59798 13.0949 8.90135 13.3438 9.25625 13.4907C9.61114 13.6376 10.0016 13.676 10.3783 13.601C10.7551 13.526 11.1011 13.3411 11.3727 13.0695C11.6443 12.7979 11.8293 12.4518 11.9042 12.0751C11.9792 11.6984 11.9408 11.3079 11.7939 10.953C11.647 10.5981 11.3981 10.2948 11.0788 10.0813C10.7595 9.86778 10.3841 9.75375 10 9.75359Z" fill="#2E45B8"/>
</svg>
